<svg xmlns="http://www.w3.org/2000/svg" xmlns:xlink="http://www.w3.org/1999/xlink" viewBox="0 0 38 38.04"><defs><style>.cls-1{fill:url(#Безымянный_градиент);}.cls-2{fill:url(#Безымянный_градиент_4);}.cls-3{fill:url(#Безымянный_градиент_4-2);}.cls-4{fill:url(#Безымянный_градиент_4-3);}</style><linearGradient id="Безымянный_градиент" x1="-0.04" y1="1657.02" x2="37.96" y2="1657.02" gradientTransform="translate(0 -1638)" gradientUnits="userSpaceOnUse"><stop offset="0" stop-color="#f6a741"/><stop offset="1" stop-color="#fddf3c"/></linearGradient><linearGradient id="Безымянный_градиент_4" x1="4.78" y1="1646.95" x2="32.26" y2="1639.59" gradientTransform="translate(0 -1638)" gradientUnits="userSpaceOnUse"><stop offset="0" stop-color="#1e0f00"/><stop offset="0.3" stop-color="#211204"/><stop offset="0.58" stop-color="#291d10"/><stop offset="0.87" stop-color="#372e23"/><stop offset="1" stop-color="#40382f"/></linearGradient><linearGradient id="Безымянный_градиент_4-2" x1="5.71" y1="1674.46" x2="33.19" y2="1667.09" xlink:href="#Безымянный_градиент_4"/><linearGradient id="Безымянный_градиент_4-3" x1="0.6" y1="1661.94" x2="37.26" y2="1652.11" xlink:href="#Безымянный_градиент_4"/></defs><title>Ресурс 2</title><g id="Слой_2" data-name="Слой 2"><g id="Слой_1-2" data-name="Слой 1"><g id="Слой_1-2-2" data-name="Слой 1-2"><circle class="cls-1" cx="19" cy="19.02" r="19"/><path class="cls-2" d="M33.7,7A18.91,18.91,0,0,0,7.1,4.22,18.52,18.52,0,0,0,4.3,7Z"/><path class="cls-3" d="M4.3,31a18.91,18.91,0,0,0,26.6,2.8A18.52,18.52,0,0,0,33.7,31Z"/><path class="cls-4" d="M0,19a27.1,27.1,0,0,0,.4,4H37.5a18.1,18.1,0,0,0,.4-4,27.1,27.1,0,0,0-.4-4H.4A27.1,27.1,0,0,0,0,19Z"/></g></g></g></svg>