<svg xmlns="http://www.w3.org/2000/svg" viewBox="0 0 54 53.9">
    <title>Ресурс 1</title>
    <g id="Слой_2" data-name="Слой 2">
        <g id="Слой_1-2" data-name="Слой 1">
            <path fill="#00b956" d="M30.3.1V27.9a2.16,2.16,0,0,1-2.2,2.2H24.8a.32.32,0,0,0-.3.3V53.7c.8,0,1.6.2,2.5.2A27,27,0,0,0,30.3.1Zm-.6,41.6A3.3,3.3,0,1,1,33,38.4,3.15,3.15,0,0,1,29.7,41.7Zm7.9,0a3.3,3.3,0,1,1,3.3-3.3A3.26,3.26,0,0,1,37.6,41.7Zm8,0a3.3,3.3,0,1,1,3.3-3.3A3.33,3.33,0,0,1,45.6,41.7Z" />
            <path fill="#00b956" d="M27,0A27,27,0,0,0,0,27,26.66,26.66,0,0,0,21.3,53.3V29a2.44,2.44,0,0,1,2-2.2h3.3a.32.32,0,0,0,.3-.3ZM21.8,22.2a3.3,3.3,0,1,1,3.3-3.3A3.4,3.4,0,0,1,21.8,22.2Z" />
        </g>
    </g>
</svg>
