<svg xmlns="http://www.w3.org/2000/svg" xmlns:xlink="http://www.w3.org/1999/xlink" viewBox="0 0 2500 707.69"><defs><style>.cls-1{fill:#4db45e;}.cls-2{fill:url(#Безымянный_градиент);}</style><linearGradient id="Безымянный_градиент" x1="856.52" y1="1956.95" x2="1570.62" y2="1956.95" gradientTransform="matrix(1.03, 0, 0, -1.03, 881.6, 2161.72)" gradientUnits="userSpaceOnUse"><stop offset="0.3" stop-color="#00b4e6"/><stop offset="1" stop-color="#088ccb"/></linearGradient></defs><title>Ресурс 1</title><g id="Слой_2" data-name="Слой 2"><g id="Слой_1-2" data-name="Слой 1"><path class="cls-1" d="M673.69,0V.31C673.38.31,576,0,550,93c-23.8,85.32-90.88,320.77-92.74,327.26H438.75S370.13,179.6,346,92.74C320-.31,222.36,0,222.36,0H0V707.69H222.47V287.38H241L370.85,707.69H525.31l129.83-420h18.55v420H896.15V0Zm812.69,0s-65.23,5.87-95.83,74.19L1233,420.31h-18.55V0H992V707.69h210.1s68.32-6.18,98.92-74.19l154.46-346.12H1474V707.69h222.47V0Zm309,321.39v386.3h222.47V482.13h241c105.1,0,194-67.08,227.1-160.64H1795.4v-.1Z"/><path class="cls-2" d="M2259,0H1764.18c24.73,134.78,125.81,242.87,256.47,278.11a355.65,355.65,0,0,0,93,12.37h381.36A237.58,237.58,0,0,0,2500,241c0-133.13-107.88-241-241-241Z"/></g></g></svg>