<svg xmlns="http://www.w3.org/2000/svg" viewBox="0 0 382.68 95.24">
    <title>Ресурс 1</title>
    <g id="Слой_2" data-name="Слой 2">
        <g id="Layer_1" data-name="Layer 1">
            <path fill="#e30611" d="M34,0C26.92,0,18.5,6.83,11.55,18.3,4.32,30.19,0,44.9,0,57.68,0,76.38,10.5,95.24,34,95.24S68,76.38,68,57.68C68,44.9,63.72,30.19,56.52,18.3,49.51,6.83,41.1,0,34,0Z" />
            <polygon fill="#e30611" points="217.7 28.06 241.51 28.06 241.51 90.14 267.02 90.14 267.02 28.06 290.83 28.06 290.83 5.1 217.7 5.1 217.7 28.06" />
            <path fill="#e30611" d="M345.26,28.06h37.42V5.1H345.26c-34.38,0-52.74,17.09-52.74,42.52s18.35,42.52,52.74,42.52h37.42v-23H345.26c-15.91,0-26.37-5.69-26.37-19.56S329.35,28.06,345.26,28.06Z" />
            <polygon fill="#e30611" points="165.81 5.1 152.22 55.86 138.61 5.1 93.54 5.1 93.54 90.14 119.06 90.14 119.06 20.97 137.59 90.14 166.84 90.14 185.39 20.93 185.39 90.14 210.9 90.14 210.9 5.1 165.81 5.1" />
        </g>
    </g>
</svg>
