<svg xmlns="http://www.w3.org/2000/svg" viewBox="0 0 88.96 28.3"><defs><style>.cls-1{fill:#cc1626;}.cls-1,.cls-2,.cls-3{fill-rule:evenodd;}.cls-2{fill:#fff;}.cls-3{fill:#fc0;}</style></defs><title>Ресурс 1</title><g id="Слой_2" data-name="Слой 2"><g id="Слой_1-2" data-name="Слой 1"><polygon class="cls-1" points="0 0 88.96 0 88.96 28.3 0 28.3 0 0 0 0"/><path class="cls-2" d="M11.74,14.24l4-4-4-4h3l4,4-4,4Zm-5.33,0,4-4-4-4h3l4,4-4,4Z"/><path class="cls-2" d="M44,22.19c.78,0,1.39-.39,1.39-1.17s-.62-.93-1.16-1.1l-.07,0c-.41-.13-.77-.25-.77-.5s.19-.39.52-.39a2.17,2.17,0,0,1,1.05.35l.34-.61a2.59,2.59,0,0,0-1.37-.42,1.19,1.19,0,0,0-1.33,1.14c0,.73.62,1,1.17,1.12l.06,0c.41.12.77.22.77.49s-.21.42-.58.42A2.1,2.1,0,0,1,42.75,21l-.38.58a2.62,2.62,0,0,0,1.58.56Zm4,0a1.89,1.89,0,0,0,1.53-.7l-.5-.45a1.36,1.36,0,0,1-1,.45,1,1,0,0,1-1.07-.95h2.74s0-.18,0-.24a1.81,1.81,0,0,0-1.79-2,2,2,0,0,0,.09,3.9ZM46.86,20a1,1,0,0,1,1-1,1,1,0,0,1,.95,1Zm5.35,2.21a1.89,1.89,0,0,0,1.53-.7L53.22,21a1.31,1.31,0,0,1-1,.47,1.21,1.21,0,0,1,0-2.4,1.26,1.26,0,0,1,1,.47l.53-.57a1.87,1.87,0,0,0-1.49-.64,1.95,1.95,0,0,0,0,3.9Zm3.6,0A1.34,1.34,0,0,0,57,21.54v.58h.86V18.38H57v2.11a.83.83,0,0,1-.84.93c-.51,0-.8-.33-.8-.91V18.38h-.86v2.38a1.28,1.28,0,0,0,1.33,1.44Zm3.1-.08h.86V20.7c0-1,.52-1.48,1.27-1.48h0v-.91a1.32,1.32,0,0,0-1.32.91v-.84h-.86v3.73Zm4.5.09a1.89,1.89,0,0,0,1.53-.7l-.5-.45a1.36,1.36,0,0,1-1,.45,1,1,0,0,1-1.07-.95H65.1s0-.18,0-.24a1.81,1.81,0,0,0-1.79-2,2,2,0,0,0,.09,3.9ZM62.34,20a1,1,0,0,1,1-1,1,1,0,0,1,.95,1Zm5.17,2.21a1.49,1.49,0,0,0,1.27-.7v.62h.86V17h-.86v2a1.55,1.55,0,0,0-1.27-.66,1.78,1.78,0,0,0-1.73,1.94,1.8,1.8,0,0,0,1.73,2Zm.21-.74a1.11,1.11,0,0,1-1.07-1.2A1.1,1.1,0,0,1,67.72,19a1.21,1.21,0,0,1,0,2.4Zm7.24.74a1.79,1.79,0,0,0,1.74-1.94,1.8,1.8,0,0,0-1.74-2,1.49,1.49,0,0,0-1.27.7V17h-.86v5.16h.86v-.58a1.52,1.52,0,0,0,1.27.66Zm-.2-.74a1.21,1.21,0,0,1,0-2.4,1.21,1.21,0,0,1,0,2.4Zm3.4,1.82c.6,0,.93-.28,1.23-1l1.49-3.84H80l-1,2.77L78,18.38H77l1.56,3.73c-.14.33-.29.43-.53.43a1.05,1.05,0,0,1-.5-.14l-.29.64a1.74,1.74,0,0,0,.88.23Z"/><path class="cls-2" d="M30.86,13a1.77,1.77,0,0,0,1.77-1.81,1.79,1.79,0,0,0-.9-1.59,1.76,1.76,0,0,0-1.76,0,1.86,1.86,0,0,0,0,3.12,1.76,1.76,0,0,0,.93.26Zm-8-2.5V7.62h1.56a1.4,1.4,0,0,1,1,.43h0a1.34,1.34,0,0,1,.43,1,1.47,1.47,0,0,1-1.46,1.46H22.89Zm0,1.45h1.56a2.82,2.82,0,0,0,1.13-.23,2.93,2.93,0,0,0,1.55-1.55,2.82,2.82,0,0,0,.23-1.13,2.78,2.78,0,0,0-.23-1.13A2.94,2.94,0,0,0,25.59,6.4a2.82,2.82,0,0,0-1.13-.23h-3v8.06h1.45V12Zm9.83,1.55a2.7,2.7,0,0,1-2,.83,3,3,0,0,1-3-3.14,3,3,0,0,1,3-3.15,2.69,2.69,0,0,1,2,.84V8.14h1.37v6.15H32.72v-.75Zm7.19-.1a2.31,2.31,0,0,1-1.81.78c-1.79,0-2.68-1.24-2.68-2.95V8.15H36.8V11.2c0,1,.41,1.69,1.49,1.69s1.64-.83,1.64-1.91V8.15h1.37v5.29a2.88,2.88,0,0,1-3,3.11,4.1,4.1,0,0,1-2.65-.94l-.08-.06.8-.85.07,0a3.45,3.45,0,0,0,1.86.54,1.46,1.46,0,0,0,1.64-1.59v-.24Z"/><path class="cls-3" d="M63.34,9.8h0l0-.08v0h0l0-.08h0v0l0,0h0l0-.06h0l0,0h0l0,0h0l.07-.1h0l0,0h0A3.05,3.05,0,0,1,66.1,8.06h.12a3,3,0,0,1,3,3.14,3,3,0,0,1-3,3.15,2.37,2.37,0,0,1-1.78-.8v2.9H63V11.06h0A3.16,3.16,0,0,1,63.27,10h0V9.84l0,0ZM42.67,6.16h1.45v8.06H42.67V6.16Zm3.44,4,3.36,4H47.55l-3.24-4,3.23-4h1.91l-3.35,4ZM50.7,11.6a1.58,1.58,0,0,0,1.76,1.46,3.66,3.66,0,0,0,1.86-.51l.07,0,.76.82-.08.06a4.28,4.28,0,0,1-2.61.93,3,3,0,0,1-3.17-3.14,3,3,0,0,1,3.1-3.15,2.78,2.78,0,0,1,2.83,3.49l0,.07Zm6.77,0a1.58,1.58,0,0,0,1.76,1.46,3.66,3.66,0,0,0,1.86-.51l.07,0,.76.82-.08.06a4.28,4.28,0,0,1-2.61.93,3,3,0,0,1-3.17-3.14,3,3,0,0,1,3.1-3.15A2.78,2.78,0,0,1,62,11.54l0,.07Zm13.95,0a1.58,1.58,0,0,0,1.76,1.46A3.66,3.66,0,0,0,75,12.55l.07,0,.76.82-.08.06a4.28,4.28,0,0,1-2.61.93A3,3,0,0,1,70,11.2,3,3,0,0,1,73.1,8a2.78,2.78,0,0,1,2.83,3.49l0,.07Zm-7-.4a1.72,1.72,0,1,0,3.44,0,1.72,1.72,0,1,0-3.44,0Zm-13.59-.69h3.16a1.49,1.49,0,0,0-.11-.31,1.53,1.53,0,0,0-1.43-.88,1.62,1.62,0,0,0-1.57,1l0,.14Zm6.77,0h3.16a1.51,1.51,0,0,0-.11-.31,1.53,1.53,0,0,0-1.43-.88,1.62,1.62,0,0,0-1.57,1l0,.14Zm13.95,0h3.16a1.49,1.49,0,0,0-.11-.31,1.53,1.53,0,0,0-1.43-.88,1.61,1.61,0,0,0-1.57,1l0,.15Zm6.91-1.57a2.8,2.8,0,0,1,2.15-.88h.32V9.43h-.59c-1.32,0-1.86.9-1.86,2.12v2.7H77V8.13h1.4v.81Z"/></g></g></svg>