<svg xmlns="http://www.w3.org/2000/svg" viewBox="0 0 505.39 149.92"><defs><style>.cls-1{fill:#1d779b;}.cls-2{fill:#fff;fill-rule:evenodd;}</style></defs><title>Ресурс 1</title><g id="Слой_2" data-name="Слой 2"><g id="_1" data-name="1"><rect class="cls-1" width="505.39" height="149.92"/><path class="cls-2" d="M38.56,27c0-.71-.08-1.57.58-2.05a2.84,2.84,0,0,1,1.77.33Q66.83,37.42,92.77,49.54a4.7,4.7,0,0,0,4.32-.32c16.58-8,33.19-16,49.77-24,.76-.5,2.17-.67,2.28.56.16,3.24,0,6.5.06,9.74,3-1.37,6-2.88,9-4.21a1.12,1.12,0,0,1,1.7,1.2q0,30.73,0,61.46a3.27,3.27,0,0,1-2.23,3.11q-30.51,13.7-61,27.43a5.32,5.32,0,0,1-4.31-.09Q62.41,111,32.45,97.52C30.89,97,29.23,95.89,29.27,94c0-20.39,0-40.77,0-61.15-.14-.88.54-2.2,1.57-1.61,2.64,1.06,5.15,2.4,7.74,3.57q0-3.93,0-7.86Zm5,6a17,17,0,0,0-.21,4.09Q68.14,48.74,93,60.39c2,1,4.1-.19,5.9-1.07C114,52.19,129.08,45,144.21,37.92c0-1.76.67-3.85-.4-5.39-1.57,0-2.85,1.06-4.25,1.63L96.72,54.8a4.89,4.89,0,0,1-4.38-.06Q69,43.77,45.62,32.85c-.65-.32-1.7-.77-2.09.14Zm-8.3,6.71c-.75.33-.57,1.29-.64,1.94q0,24.2,0,48.39a3.47,3.47,0,0,0,2.19,3.55q27.92,12.51,55.83,25.06a4.79,4.79,0,0,0,4.07,0Q124.58,106,152.48,93.5a3.16,3.16,0,0,0,2.07-3.06q0-24.6,0-49.21c0-.65-.06-1.48-.82-1.67a14.54,14.54,0,0,0-3.15,1.29Q123.8,53.52,97,66.17a4.81,4.81,0,0,1-4.32.07Q64.75,53.1,36.8,40c-.5-.12-1.08-.67-1.57-.27Zm149.17,4.51a27.33,27.33,0,0,1,5-.18c4.32.08,8.87-.45,12.94,1.37a9.84,9.84,0,0,1,5.85,7.43c.44,3.34.14,7-1.73,9.85a11.78,11.78,0,0,1-7,4.86,32.05,32.05,0,0,1-8.83.68c-.08,4.07.15,8.16-.1,12.23-1.37,1.14-3.41.71-5.07.77-.94-.07-2.68-.15-2.45-1.51,0-10.83,0-21.66,0-32.49,0-1.12.19-2.57,1.4-3Zm6.23,5.67V62.37c2.78,0,6.12.45,8.22-1.81,2.16-2.57,2.35-7.11-.29-9.43-2.25-1.73-5.29-1.14-7.93-1.24Zm94.3-5.61c1.3-.44,2.71-.18,4.06-.25,1.92.08,4-.28,5.77.63a5,5,0,0,1,2.17,3c2.68,7.58,5.47,15.12,8.16,22.69,3-7.7,5.81-15.45,8.72-23.18a4.24,4.24,0,0,1,3-3,48.42,48.42,0,0,1,5.47-.14c1.13.05,2.42-.17,3.38.57a3.81,3.81,0,0,1,1,3q0,14.67,0,29.34a25,25,0,0,1-.1,3.49c-.72.89-2,.72-3,.84-1.34-.06-2.93.18-4-.73-.19-10.13,0-20.28-.1-30.41-3.54,9.85-7,19.73-10.52,29.58-.42,1.82-2.61,1.51-4,1.58-1.36-.11-3.52.18-4-1.53-3.42-9.85-6.69-19.75-10.19-29.57-.05,9.86,0,19.72,0,29.58.24,1.38-1.52,1.38-2.45,1.47-1.54-.05-3.49.37-4.69-.81-.23-10.67,0-21.37-.11-32,0-1.45-.06-3.41,1.52-4.1Zm117.11,3c1-.7,2.32-.55,3.49-.59s2.49-.12,3.51.61c.39,2.05.09,4.17.17,6.25,2,.1,4.08-.23,6.06.18a5.11,5.11,0,0,1,.6,3c-.07.92,0,2.07-.82,2.69-1.94.18-3.89,0-5.84.07,0,4,0,7.94,0,11.91,0,1.39.12,3.2,1.55,3.89s3.11-.34,4.67-.33a7.51,7.51,0,0,1-.07,5.41,5.26,5.26,0,0,1-3,1.15c-2.67.34-5.68.21-7.88-1.51-2-1.71-2.53-4.53-2.58-7,0-4.49,0-9,0-13.48h-3.57a7.32,7.32,0,0,1-.1-5.79,17.23,17.23,0,0,1,3.68-.18,45.87,45.87,0,0,1,.16-6.26ZM219.09,55a20.87,20.87,0,0,1,12.38-1.9c2.45.33,5,1.32,6.43,3.5s1.52,5,1.52,7.61c0,5.31,0,10.62,0,15.92.06.66-.67.94-1.2,1a18.09,18.09,0,0,1-4.77-.18c0-.88,0-1.76-.06-2.64a11.09,11.09,0,0,1-7.84,3.39c-3.37.15-7.21-1.16-8.72-4.41s-1.12-7.44,1.62-9.81c3.86-3.06,9.12-2.84,13.78-2.86,0-2,.21-4.57-1.86-5.61-2.94-1.18-6.28-.34-9,1-1,.41-2,1.25-3.17.91-1.14-1.74-1.24-4.89,1-5.87Zm5.9,15c-2.39,1-2.55,5-.17,6,2.63,1.26,5.59-.35,7.25-2.45a31.43,31.43,0,0,0,.11-4.37c-2.4.05-4.95-.31-7.18.77ZM341,54.84a21.45,21.45,0,0,1,12.61-1.63,8.37,8.37,0,0,1,5.92,3.51,11.5,11.5,0,0,1,1.42,6c0,5.42,0,10.84,0,16.26a6.27,6.27,0,0,1-.2,1.9,11,11,0,0,1-5.13.24c-1.16-.31-.59-1.84-.76-2.7a11.2,11.2,0,0,1-6.38,3.26c-3,.33-6.45-.13-8.7-2.37s-2.67-5.59-1.9-8.46a7.5,7.5,0,0,1,4.72-4.85c3.56-1.39,7.46-1.32,11.22-1.3-.08-1.92.14-4.47-1.84-5.56a9.7,9.7,0,0,0-6.36-.15c-2.06.5-3.81,1.81-5.89,2.22a6.2,6.2,0,0,1-.57-4.67A3.5,3.5,0,0,1,341,54.84Zm5.21,15.45a3.46,3.46,0,0,0-.23,5.59,4.84,4.84,0,0,0,4.17.4,10,10,0,0,0,3.67-2.76c0-1.4,0-2.8,0-4.2-2.53.07-5.31-.37-7.59,1ZM378,53.41a16.64,16.64,0,0,1,9.47.41c.82.34,1.89.74,2,1.74a9.77,9.77,0,0,1-.1,4c-.33.88-1.22.15-1.77,0-2.31-1.15-5.06-2-7.59-1.07a2.38,2.38,0,0,0-.55,4.12c2.68,1.92,6.24,2.17,8.81,4.31A7.3,7.3,0,0,1,391,73.37,8.11,8.11,0,0,1,385,81a17.05,17.05,0,0,1-12.12-.78c-1.61-.63-1.48-2.64-1.47-4.06.1-.71,0-1.8.81-2.12,1.77.51,3.3,1.7,5.13,2.07s4,.55,5.63-.66a2.48,2.48,0,0,0-.19-4c-2.65-1.74-6-2.16-8.47-4.16-3.6-2.71-3.72-8.72-.45-11.73A9.38,9.38,0,0,1,378,53.41Zm48.14,4.8a11.5,11.5,0,0,1,8.43-5.15c3.58-.39,7.54,0,10.39,2.38s4,6.37,3.87,10c-.05,1.17.21,2.71-1,3.44a8.06,8.06,0,0,1-3,.33c-4.59,0-9.19,0-13.78,0,.21,1.94.5,4.14,2.11,5.48,2,1.7,4.85,1.61,7.32,1.35s4.52-1.36,6.87-1.71c.28,1.71.71,3.72-.23,5.28-1.94,1.28-4.36,1.55-6.61,1.92-4.25.41-9,.27-12.5-2.49-2.6-2-3.79-5.28-4.13-8.45-.47-4.2-.08-8.74,2.22-12.4Zm6.49,1.74a9.73,9.73,0,0,0-1.55,4.49c3.58,0,7.17,0,10.76,0a9.29,9.29,0,0,0-.93-4.17c-1.66-2.87-6.35-2.93-8.28-.33Zm33.23-2.41c1.46-1.88,3.08-4,5.56-4.52a6.93,6.93,0,0,1,4.29.59c.65,1.32.43,2.89.44,4.32-.14.82,0,1.92-.75,2.46-1.43-.13-2.88-1-4.3-.42a8.81,8.81,0,0,0-3.64,3.47c-.84,1.15-.41,2.66-.51,4-.08,4.41.17,8.84-.12,13.24-1.51.83-3.34.56-5,.55-.91-.05-2.36-.2-2.21-1.44,0-6.36,0-12.73,0-19.09.16-2.23-.35-4.62.26-6.75,1.78-1,4.06-.64,6-.07,0,1.22,0,2.45,0,3.68ZM247.91,53.75a13.9,13.9,0,0,1,5.76-.24c1,0,1.23,1,1.51,1.74,2,5.66,4,11.31,6,17q2.74-8.66,5.46-17.33c.18-.65.52-1.38,1.31-1.38,2-.23,4.27-.44,6.08.67a14.5,14.5,0,0,1-.5,2.51c-3.75,11-7.45,21.92-11.21,32.87a2.06,2.06,0,0,1-1.54,1.57,16.38,16.38,0,0,1-5.88.11,1,1,0,0,1-.69-1.5c1-2.87,2.24-5.67,3.33-8.52-1.19-1.31-1.62-3.07-2.24-4.68q-3.8-10.11-7.58-20.23c-.25-.81-.77-2,.19-2.56Zm82.14,48.87c.8,0,1.61,0,2.42,0,0,4.44-.17,8.87-.19,13.31-.66,0-1.31-.06-2-.14-.22-4.39-.17-8.81-.27-13.21Zm-148,1.15a33.44,33.44,0,0,1,5.87-.11,4.15,4.15,0,0,1,3.81,2.41,4.38,4.38,0,0,1-1.49,5.28c3.09,1,3.85,5.41,1.53,7.57-2.13,2-5.22,1.35-7.85,1.45-.59-.13-1.8.26-1.84-.64-.1-5.32,0-10.64,0-16Zm2.27,1.71v5.26a24.11,24.11,0,0,0,3.55-.1c2.15-.46,2.52-4,.5-4.85a12.49,12.49,0,0,0-4-.32Zm0,7.14v5.86c1.66-.08,3.44.29,5-.42a2.88,2.88,0,0,0-.25-5c-1.51-.57-3.17-.36-4.75-.4Zm29-9a2.72,2.72,0,0,1,1.9-.05,1.83,1.83,0,0,1-.05,2.25c-.67.13-1.53.32-2-.28a2.77,2.77,0,0,1,.18-1.91Zm4.54.11c.5-.51,1.44-.33,2.05-.08a2.65,2.65,0,0,1,.09,1.83c-.38.69-1.32.43-2,.36a1.72,1.72,0,0,1-.19-2.11Zm-19,6a5.5,5.5,0,0,1,7.53-.85c.7.58.31,1.59.3,2.36-1.37-.73-2.82-2-4.47-1.43-1.87.5-2.33,2.73-2.32,4.41s.42,3.81,2.24,4.33,3.19-.67,4.54-1.5c.1.66.17,1.33.23,2A6.06,6.06,0,0,1,200,120a5.34,5.34,0,0,1-2.35-4.18c-.19-2.06-.11-4.35,1.18-6.07Zm13.53,0a5.74,5.74,0,0,1,7.09-1.31c2.08,1.19,2.73,3.94,2.17,6.15-2.78.32-5.58,0-8.37.16.21,1.33.44,3,1.82,3.61,2,1,4.25.08,6.23-.56-.08.73.25,1.89-.72,2.13a8.76,8.76,0,0,1-6.76.06,5.1,5.1,0,0,1-2.68-4.22c-.19-2.05-.12-4.35,1.22-6Zm2.18.55a5.55,5.55,0,0,0-1.3,2.7c2.15.06,4.3,0,6.45,0a10,10,0,0,0-.66-2.22,3,3,0,0,0-4.49-.5Zm21-2.11c2.41-.36,5-.68,7.35.21s2.13,4.3,0,5.27c2.56.76,2.86,4.51.73,5.9s-4.93,1.06-7.37.77c-1.06-.1-.84-1.42-.91-2.18.08-3.32-.15-6.66.17-10Zm2,1.4c0,1.18,0,2.36,0,3.55,1.32-.07,2.75.23,4-.38a1.62,1.62,0,0,0,.13-2.78c-1.25-.67-2.74-.36-4.09-.39Zm0,5.12c0,1.35,0,2.7,0,4.06,1.45,0,3,.34,4.36-.45a1.9,1.9,0,0,0-.2-3.25,12.1,12.1,0,0,0-4.19-.36ZM258.63,108a17.66,17.66,0,0,1,2.05-.08c.06,1.75,0,3.5,0,5.25,1-.16,2.21-.06,2.88-1,.86-1.26,1.16-2.81,1.91-4.13a6.12,6.12,0,0,1,2.27-.08c-.85,2.11-1.43,4.56-3.43,5.91,2.34,1.33,2.86,4.17,3.85,6.45a7.4,7.4,0,0,1-2.35-.08c-.89-1.46-1.19-3.21-2.21-4.6-.69-.88-1.94-.72-2.92-.91,0,1.88,0,3.76,0,5.63a19.71,19.71,0,0,1-2.06-.07c-.14-4.11-.15-8.24,0-12.34Zm13.76,1a8,8,0,0,1,7.05-.85,3.64,3.64,0,0,1,2,3.59c0,2.86,0,5.73,0,8.6l-1.82,0c0-.33,0-1,0-1.3a5.59,5.59,0,0,1-5.52,1.18c-2.55-.72-3-4.61-.89-6.07,1.8-1.26,4.11-1.08,6.2-1.16-.19-1.09-.07-2.55-1.22-3.16-1.88-.86-3.85.25-5.57,1-.09-.61-.14-1.22-.19-1.83Zm2.4,6.39a1.93,1.93,0,0,0,.5,3.25,3.59,3.59,0,0,0,3.82-1.45,9.93,9.93,0,0,0,.19-2.48c-1.5.07-3.22-.27-4.51.68Zm14-6.63a5.66,5.66,0,0,1,6.73,0c.69.58.26,1.57.31,2.32-1.38-.69-2.79-1.94-4.43-1.44a3.34,3.34,0,0,0-2.25,2.88,7.67,7.67,0,0,0,.45,4.48,2.91,2.91,0,0,0,3.62,1.35c.92-.36,1.72-.95,2.59-1.4.13.79.44,1.87-.36,2.41a5.87,5.87,0,0,1-6.73.16c-1.53-1.18-2-3.22-2-5.06-.06-2.07.39-4.39,2.08-5.75Zm11.82,2c1.16-3.14,5.54-4,8.08-2,.8.58.44,1.62.32,2.43-1.18-.63-2.3-1.63-3.72-1.55a2.94,2.94,0,0,0-2.66,2.21,7.64,7.64,0,0,0,.2,5.17,2.91,2.91,0,0,0,3.59,1.47,26.54,26.54,0,0,0,2.73-1.42q.05,1,.1,2c-2.15,2-6,2.22-8-.12-1.66-2.32-1.64-5.54-.69-8.14Zm11.95-2.78a7.53,7.53,0,0,1,2.33,0c1.38,3.09,2.25,6.39,3.53,9.52,1.17-3.15,2.07-6.41,3.35-9.52a6.46,6.46,0,0,1,2.24,0c-1.92,5.67-4,11.28-6.06,16.92-.81,0-1.62,0-2.42,0,.46-1.53,1.09-3,1.68-4.48q-2.46-6.18-4.66-12.47Zm17.81,9.53a2.54,2.54,0,0,1,2.17.23,3.75,3.75,0,0,1,0,2.3,2.59,2.59,0,0,1-2.4.15C329.85,119.44,329.59,118.23,330.35,117.59Z"/></g></g></svg>