<svg xmlns="http://www.w3.org/2000/svg" viewBox="0 0 1102.92 336.77"><defs><style>.cls-1{fill:#ea5616;}.cls-2{fill:#2c2d84;}</style></defs><title>Ресурс 1</title><g id="Слой_2" data-name="Слой 2"><g id="Слой_1-2" data-name="Слой 1"><polygon class="cls-1" points="224.51 0 112.26 112.26 224.51 112.26 224.51 336.77 336.77 224.78 336.77 0 224.51 0"/><polygon class="cls-2" points="112.26 336.77 224.52 224.51 112.26 224.51 112.26 0 0 111.99 0 336.77 112.26 336.77"/><path class="cls-2" d="M449,280.64H508v-174h89.8v174H656.7V56.13H449ZM1021.5,140.25H971.15V106.64h112.12V56.13H912.22V280.64h112.09c44.94,0,78.62-22.53,78.62-70.2s-33.68-70.19-81.42-70.19m-5.61,92.69H971.15V188.08h44.73c13.9,0,28,5.48,28,22.37s-14.08,22.49-28,22.49m-214.94-.14c-39.33,0-61.45-28.84-61.45-64.49,0-28.62,16.1-64.55,60.33-64.55,27.61,0,45.42,16.88,51.74,24.74L887.4,92.67A117.61,117.61,0,0,0,797,50.44c-65.1,0-116.47,48.18-116.47,117.87,0,65.1,51.37,117.87,116.47,117.87a117.69,117.69,0,0,0,95-48.08L855.93,202c-11.41,17.87-30,30.76-55,30.76"/></g></g></svg>