<svg xmlns="http://www.w3.org/2000/svg" viewBox="0 0 149.71 154.77"><defs><style>.cls-1{fill:#ff8c00;}</style></defs><title>Ресурс 1</title><g id="Слой_2" data-name="Слой 2"><g id="Layer_1" data-name="Layer 1"><path class="cls-1" d="M122.85,104.13c.45,3-.5,4.27-1.46,4.27s-2.36-1.22-3.9-3.64-2.08-5.11-1.33-6.5a2.15,2.15,0,0,1,2.87-.81C121.58,98.42,122.58,102.33,122.85,104.13Zm-14.13,6.58c3.06,2.59,4,5.67,2.37,7.84a5,5,0,0,1-4.11,1.85,7.3,7.3,0,0,1-4.68-1.7c-2.78-2.43-3.6-6.38-1.78-8.62a4.05,4.05,0,0,1,3.25-1.36A7.82,7.82,0,0,1,108.72,110.71Zm-5.12,25c13.19,0,27.5,4.52,43.34,18.56,1.59,1.41,3.7-.34,2.32-2.09-15.57-19.66-30-23.4-44.33-26.56C87.37,121.74,78.33,111.85,72,101c-1.25-2.16-1.81-1.78-1.93,1A61.41,61.41,0,0,0,71,114.3h0c-.71,0-1.42,0-2.14,0a45.5,45.5,0,1,1,45.5-45.5,46.06,46.06,0,0,1-.29,5.29,68.22,68.22,0,0,0-14.45-.27c-1.73.15-1.48,1-.18,1.19,15,2.72,25.37,12,27.74,29a.42.42,0,0,0,.76.17,68.84,68.84,0,1,0-59.08,33.5C78.91,137.66,88.92,135.7,103.6,135.7Z"/></g></g></svg>