<svg xmlns="http://www.w3.org/2000/svg" viewBox="0 0 57.32 57.5"><defs><style>.cls-1,.cls-3{fill:#504424;}.cls-1{stroke:#d4cfc5;stroke-width:0.35px;}.cls-1,.cls-2{stroke-linejoin:round;}.cls-1,.cls-2,.cls-3{fill-rule:evenodd;}.cls-2{fill:#fff;stroke:#504424;stroke-width:0.1px;}</style></defs><title>Ресурс 1</title><g id="Слой_2" data-name="Слой 2"><g id="Слой_1-2" data-name="Слой 1"><path class="cls-1" d="M28.66,1.83a26.91,26.91,0,1,0,12.28,3l-.24-.22a.77.77,0,0,0,0,.1,26.42,26.42,0,0,0-3.28-1.39A13,13,0,0,0,37.67,2c.05-.49-.34-1-1.14-.81-.56.12-2,.62-3.24,1a26.84,26.84,0,0,0-4.63-.43Z"/><path class="cls-1" d="M28.66,57.33A28.6,28.6,0,0,0,38.4,1.89l.12.65a27.67,27.67,0,1,1-5-1.37l1-.39a28.84,28.84,0,0,0-5.84-.6,28.58,28.58,0,0,0,0,57.15Z"/><path class="cls-2" d="M1.83,28.74A26.84,26.84,0,1,1,28.66,55.68,26.88,26.88,0,0,1,1.83,28.74Z"/><path class="cls-3" d="M38.52,2.53a27.67,27.67,0,1,1-5-1.37l1-.39a28.84,28.84,0,0,0-5.84-.6A28.45,28.45,0,1,0,38.4,1.89l.12.65Z"/><path class="cls-3" d="M15.08,34.08a5.08,5.08,0,0,1,1.61-1.19A17.88,17.88,0,0,1,22.55,32a3,3,0,0,1,2.16.94c.47.47-.34.54-.74.2a2,2,0,0,0-1.33-.45,2.27,2.27,0,0,0-1.24.38,2.08,2.08,0,0,1-1,.68,2.37,2.37,0,0,1-1.76-.51,2,2,0,0,0,2.43,1.06A3.58,3.58,0,0,1,22.35,34a1.91,1.91,0,0,1,1.55.61c-1.35-.07-3.64.78-4.72,1a16,16,0,0,1-2.63.34A3.63,3.63,0,0,0,19.66,37c.94,0,4-.22,5.8-.07,2.29.19,4.11,1.69,4.11,3.93A4.6,4.6,0,0,1,28,44.32a4.89,4.89,0,0,0,2.76-2.16,8,8,0,0,1-3.1,8.55,12.3,12.3,0,0,1-10.36.41,17.56,17.56,0,0,1-5.77-4c9.11.74,13.56-1.79,13.56-1.79A36.78,36.78,0,0,1,7.43,42.12a24.73,24.73,0,0,1-3.2-7.75h0a31.12,31.12,0,0,0,12.85,6c-7.35-4-11-8.47-13.45-12.93a24.94,24.94,0,0,1,1.49-7.38l0,0c2.73,7.28,5.73,9.45,5.73,9.45A29.82,29.82,0,0,1,8.2,14.22a24.93,24.93,0,0,1,3.91-4.36l0,0a24.07,24.07,0,0,0,.23,10.73c0-5.14,2.88-11.26,5.17-14.38A24.26,24.26,0,0,1,22,4.46h0a20.53,20.53,0,0,0-3,5.2c4.29-4.1,11.4-6.56,12.48-6.84s4.19-1.42,5.07-1.62,1.2.32,1.14.81a15.91,15.91,0,0,1-.34,1.69,6.91,6.91,0,0,1,3.42,1.76,3.06,3.06,0,0,1,0-.86C44,7.54,44.89,8.94,45,11.6s1.26,3.07,1.93,3.43a25.32,25.32,0,0,1,2.88,1.76c.4.34.23.72,0,1a1,1,0,0,0-.26.67,2.45,2.45,0,0,1-1.67,2.25,2.53,2.53,0,0,1-1.8-.18c-.94,1-1.12.36-1.17,0s-.54-.09-.9,0-.5-.36-.5-.36A2.6,2.6,0,0,0,41,21a2.67,2.67,0,0,1,2.3,1.62c.07.42.74.14.74.14a.7.7,0,0,1,.34-.27c.27-.14.34-.07.27.27s-.14.61-.14.61l.75.48c-.28,1.83-1.08,1.75-1.49,1.55-2.59-1.3-7.22-1.55-7.22-1.55a5.58,5.58,0,0,1,.92-.93c-11.87,0-13.88,1.45-14.49,2.21A1.48,1.48,0,0,0,23,26.45c-1.41.27-5,1.18-6.37,2.44s-1.76,4.05-1.81,5.1c0,.22.2.21.29.09ZM35.76,3.39c.13-.15,0-.27-.36,0a8.92,8.92,0,0,0-3,3c-.13.23-.05.56.52.37a9.81,9.81,0,0,1,1.73-.41c.32,0,.32-.27.09-.35s-.28-.18-.18-.54a7.73,7.73,0,0,1,1.21-2Zm-3,4.87a32.59,32.59,0,0,0-8,10.7c-.14.32,0,.37.45.09A14.75,14.75,0,0,1,27.61,18s-.68,2.36-.9,3.66c-.18,1.07.71,1,1.26.86s2.84-.23,3.24-.27c0,0-2.11-.5-2.34-1.36s.38-2.76.81-4.06c.09-.28,0-.68-.49-.5a13.33,13.33,0,0,0-1.4.5,34.84,34.84,0,0,1,5-8.4l0-.14,10.49,2.17C43,12.21,42.39,12.05,42.1,12a3.91,3.91,0,0,0-1.35-.31c-.3,0-1.68-.18-.94.4A10.9,10.9,0,0,1,42,14.94a3.28,3.28,0,0,0-.36-1.85c-.18-.32,0-.41.26-.36a2.46,2.46,0,0,1,.77.36c.4.22.67.18.76-.36a10.92,10.92,0,0,0,0-2.3.07.07,0,0,0-.14,0L32.79,8.26Z"/><path class="cls-3" d="M46.27,46.81c-1.06-3.55-4-5.82-5.6-7.78C40,38.22,39,37.1,39,37.1a10.12,10.12,0,0,0,2.75.81,25.17,25.17,0,0,1-2.07-2.31,16.47,16.47,0,0,0-5-3.92A23.27,23.27,0,0,0,27.75,30c-.45-.09-1.4.09-.82-.82a33,33,0,0,1,4-3.56c-.72,0-3.87.28-4.82.41s-1.16-.18-1.21-.81c0,0-1.9,1.79-1,2.7.14.14.54.18,1,0a8.85,8.85,0,0,1,1.84-.59,12.93,12.93,0,0,0-1,1.8c-.18.54-.22.81.63,1.08a34,34,0,0,1,7.83,3.43,20.18,20.18,0,0,1,7.43,8.35c2,4.25.91,7.47.59,8.05a24.62,24.62,0,0,0,4-3.19l0,0Z"/><path class="cls-3" d="M52.19,37.81C49.59,35.69,45,31.9,39.44,30.6c0,0,8,3.19,10.79,11.21a24.88,24.88,0,0,0,2-4Z"/><path class="cls-3" d="M36.58,52.71a18.56,18.56,0,0,0,.8-10.38s.18,8.61-5.71,11.45a25.47,25.47,0,0,0,4.9-1.07Z"/><path class="cls-3" d="M53.86,28.41c-.76-.31-5.47-1.65-5.47-1.65a2.71,2.71,0,0,0,2.21-1.26,15.34,15.34,0,0,1-5.62.31,33.49,33.49,0,0,1,8.71,6v0a26.62,26.62,0,0,0,.18-3.06c0-.13,0-.2,0-.33Z"/></g></g></svg>