<svg xmlns="http://www.w3.org/2000/svg" viewBox="0 0 345 130.04"><defs><style>.cls-1{fill:#141414;}</style></defs><title>Ресурс 1</title><g id="Слой_2" data-name="Слой 2"><g id="Слой_1-2" data-name="Слой 1"><path class="cls-1" d="M0,45.79V64.57L50.65,59V38.68L0,45.79M16.16,65.71V130H34.7V63.82l-18.54,1.9m41.32-28V130H77V35L57.49,37.72m23.18-3.26V55.7l28.21-3.1V30.49l-28.21,4m0,37V93.13l18.52-1V69.91L80.66,71.5m0,37.21V130h28.21V107.87l-28.21.85M181.84,20.21V130h25.61V16.61l-25.61,3.6m30.4-4.27V41.2l37.33-4.1V10.69l-37.33,5.25m0,44.27V85.93L236.7,84.6V58.1l-24.46,2.1m0,44.54V130h37.33V103.61l-37.33,1.13m-95.89-75.3V130H138.6V26.31l-22.26,3.13m26.41,77.4V130h32.31V105.87l-32.31,1M333.24,9.44c-8.1-7.65-20-10.78-32.95-8.92v28c5.26-.29,9.52,1.66,11.42,5.59,3,6.19-.1,15.49-7.39,24.09-11.26,13.28-41.2,40.48-41.2,40.48l43-1.41c26.26-25.65,35.69-41.23,37.38-60.66A33.23,33.23,0,0,0,333.24,9.44M345,130V100.72l-87.17,2.63m0,0V130H345M295.29,1.15C270,6.55,257.53,25.18,259,55.58l27-2.4c-1.23-17.17,4-21.25,9.34-23.49V1.15"/></g></g></svg>