<svg xmlns="http://www.w3.org/2000/svg" viewBox="0 0 400 129.17"><defs><style>.cls-1{fill:#1a1f71;}</style></defs><title>Ресурс 1</title><g id="Слой_2" data-name="Слой 2"><g id="Слой_1-2" data-name="Слой 1"><path class="cls-1" d="M206.87,41.29c-.23,18,16,28,28.29,34,12.59,6.13,16.82,10.05,16.77,15.53-.1,8.38-10,12.08-19.35,12.23-16.24.25-25.68-4.38-33.19-7.89l-5.85,27.37c7.53,3.47,21.48,6.5,35.94,6.63,33.94,0,56.15-16.76,56.27-42.74.13-33-45.61-34.8-45.3-49.54.11-4.47,4.37-9.24,13.72-10.45,4.62-.61,17.39-1.08,31.87,5.59l5.68-26.48A86.62,86.62,0,0,0,261.47,0c-32,0-54.42,17-54.6,41.29m139.44-39a14.73,14.73,0,0,0-13.75,9.16L284.07,127.22H318l6.75-18.65h41.45l3.92,18.65H400L373.91,2.28ZM351.05,36l9.79,46.92H334ZM165.74,2.28,139,127.22h32.32L198.05,2.28Zm-47.82,0-33.64,85L70.67,15c-1.6-8.07-7.9-12.73-14.91-12.73H.77L0,5.91c11.29,2.45,24.12,6.4,31.89,10.63,4.76,2.58,6.11,4.84,7.68,11l25.78,99.71H99.5L151.87,2.28Z"/></g></g></svg>