<svg xmlns="http://www.w3.org/2000/svg" viewBox="0 0 199.96 196.92"><defs><style>.cls-1{fill:#036cb5;}</style></defs><title>Ресурс 1</title><g id="Слой_2" data-name="Слой 2"><g id="Layer_1" data-name="Layer 1"><path id="Combined-Shape" class="cls-1" d="M99.51,0a100.87,100.87,0,0,1,43.76,10c2.09.94,4.19,2.07,6.27,3.2l-9.13,8.09L126.72,7.15,103.13,27.84,89.23,13,45.85,51.54,73.63,81.82l-10.84,9.4,27.4,30.28-10.84,9.4L118.54,174l23.2-21.07,20.18,22.58a112.67,112.67,0,0,1-13.13,8.65A100.33,100.33,0,0,1,99.7,196.92c-55,0-99.7-44.19-99.7-98.55C-.19,44.39,44.52,0,99.51,0ZM81.24,92.35,105,71.29,126.34,94.8l-23.79,21.07ZM98.18,133l23.59-21.25,21.5,23.51-23.79,21.07ZM64.31,52.29,88.09,31.22,109.4,54.74,85.62,75.8ZM107.88,41l17.7-15.8,16,17.49-17.7,16Zm31.59,72.42,17.69-15.8,16,17.68-17.7,15.81ZM155.06,149l17.7-15.8,16,17.49-17.69,16Zm7.23-81.26,11.79-10.53,10.65,11.67L172.95,79.37Zm-15.22-34.8,11.8-10.72L169.53,34l-11.8,10.53Zm30.25,69.6L189.12,92,200,103.64l-12,10.53ZM124.24,76.37l17.7-15.8,16,17.49-17.69,15.8Z"/></g></g></svg>