<svg xmlns="http://www.w3.org/2000/svg" width="500" height="500"><path d="M306,-236L396,-224L563,-240Z" fill="#aeaeae" stroke="#aeaeae" stroke-width="1.51"/><path d="M306,-236L563,-240L712,-284Z" fill="#a2a2a2" stroke="#a2a2a2" stroke-width="1.51"/><path d="M80,-286L306,-236L712,-284Z" fill="#b8b8b8" stroke="#b8b8b8" stroke-width="1.51"/><path d="M368,747L223,792L741,699Z" fill="#3b3b3b" stroke="#3b3b3b" stroke-width="1.51"/><path d="M552,684L368,747L741,699Z" fill="#323232" stroke="#323232" stroke-width="1.51"/><path d="M735,219L613,411L784,351Z" fill="#4c4c4c" stroke="#4c4c4c" stroke-width="1.51"/><path d="M613,411L701,555L784,351Z" fill="#414141" stroke="#414141" stroke-width="1.51"/><path d="M701,555L741,699L784,351Z" fill="#323232" stroke="#323232" stroke-width="1.51"/><path d="M525,-108L671,84L789,-66Z" fill="#7a7a7a" stroke="#7a7a7a" stroke-width="1.51"/><path d="M712,-284L563,-240L789,-66Z" fill="#828282" stroke="#828282" stroke-width="1.51"/><path d="M563,-240L525,-108L789,-66Z" fill="#898989" stroke="#898989" stroke-width="1.51"/><path d="M671,84L735,219L789,-66Z" fill="#676767" stroke="#676767" stroke-width="1.51"/><path d="M735,219L784,351L789,-66Z" fill="#585858" stroke="#585858" stroke-width="1.51"/><path d="M521,249L613,411L735,219Z" fill="#5d5d5d" stroke="#5d5d5d" stroke-width="1.51"/><path d="M701,555L552,684L741,699Z" fill="#292929" stroke="#292929" stroke-width="1.51"/><path d="M671,84L521,249L735,219Z" fill="#676767" stroke="#676767" stroke-width="1.51"/><path d="M508,120L521,249L671,84Z" fill="#797979" stroke="#797979" stroke-width="1.51"/><path d="M613,411L510,580L701,555Z" fill="#464646" stroke="#464646" stroke-width="1.51"/><path d="M510,580L552,684L701,555Z" fill="#3c3c3c" stroke="#3c3c3c" stroke-width="1.51"/><path d="M525,-108L508,120L671,84Z" fill="#868686" stroke="#868686" stroke-width="1.51"/><path d="M447,69L508,120L525,-108Z" fill="#929292" stroke="#929292" stroke-width="1.51"/><path d="M521,249L351,399L613,411Z" fill="#6b6b6b" stroke="#6b6b6b" stroke-width="1.51"/><path d="M351,399L510,580L613,411Z" fill="#5e5e5e" stroke="#5e5e5e" stroke-width="1.51"/><path d="M442,-128L525,-108L563,-240Z" fill="#9f9f9f" stroke="#9f9f9f" stroke-width="1.51"/><path d="M396,-224L442,-128L563,-240Z" fill="#a7a7a7" stroke="#a7a7a7" stroke-width="1.51"/><path d="M442,-128L447,69L525,-108Z" fill="#9c9c9c" stroke="#9c9c9c" stroke-width="1.51"/><path d="M510,580L370,609L552,684Z" fill="#484848" stroke="#484848" stroke-width="1.51"/><path d="M370,609L368,747L552,684Z" fill="#444444" stroke="#444444" stroke-width="1.51"/><path d="M351,399L370,609L510,580Z" fill="#606060" stroke="#606060" stroke-width="1.51"/><path d="M508,120L382,210L521,249Z" fill="#828282" stroke="#828282" stroke-width="1.51"/><path d="M382,210L351,399L521,249Z" fill="#7c7c7c" stroke="#7c7c7c" stroke-width="1.51"/><path d="M447,69L382,210L508,120Z" fill="#8d8d8d" stroke="#8d8d8d" stroke-width="1.51"/><path d="M253,89L382,210L447,69Z" fill="#999999" stroke="#999999" stroke-width="1.51"/><path d="M442,-128L263,-70L447,69Z" fill="#a6a6a6" stroke="#a6a6a6" stroke-width="1.51"/><path d="M263,-70L253,89L447,69Z" fill="#a8a8a8" stroke="#a8a8a8" stroke-width="1.51"/><path d="M396,-224L263,-70L442,-128Z" fill="#b0b0b0" stroke="#b0b0b0" stroke-width="1.51"/><path d="M190,297L201,351L351,399Z" fill="#8a8a8a" stroke="#8a8a8a" stroke-width="1.51"/><path d="M295,630L368,747L370,609Z" fill="#505050" stroke="#505050" stroke-width="1.51"/><path d="M351,399L295,630L370,609Z" fill="#666666" stroke="#666666" stroke-width="1.51"/><path d="M190,297L351,399L382,210Z" fill="#888888" stroke="#888888" stroke-width="1.51"/><path d="M306,-236L263,-70L396,-224Z" fill="#b9b9b9" stroke="#b9b9b9" stroke-width="1.51"/><path d="M201,351L295,630L351,399Z" fill="#787878" stroke="#787878" stroke-width="1.51"/><path d="M253,89L190,297L382,210Z" fill="#9a9a9a" stroke="#9a9a9a" stroke-width="1.51"/><path d="M295,630L223,792L368,747Z" fill="#4e4e4e" stroke="#4e4e4e" stroke-width="1.51"/><path d="M201,351L71,454L295,630Z" fill="#828282" stroke="#828282" stroke-width="1.51"/><path d="M-104,725L-200,734L122,792Z" fill="#707070" stroke="#707070" stroke-width="1.51"/><path d="M150,121L190,297L253,89Z" fill="#a8a8a8" stroke="#a8a8a8" stroke-width="1.51"/><path d="M71,454L61,576L295,630Z" fill="#7d7d7d" stroke="#7d7d7d" stroke-width="1.51"/><path d="M111,-76L263,-70L306,-236Z" fill="#c2c2c2" stroke="#c2c2c2" stroke-width="1.51"/><path d="M80,-286L111,-76L306,-236Z" fill="#cfcfcf" stroke="#cfcfcf" stroke-width="1.51"/><path d="M122,792L223,792L295,630Z" fill="#575757" stroke="#575757" stroke-width="1.51"/><path d="M61,576L122,792L295,630Z" fill="#666666" stroke="#666666" stroke-width="1.51"/><path d="M111,-76L150,121L253,89Z" fill="#bbbbbb" stroke="#bbbbbb" stroke-width="1.51"/><path d="M111,-76L253,89L263,-70Z" fill="#bcbcbc" stroke="#bcbcbc" stroke-width="1.51"/><path d="M150,121L98,310L190,297Z" fill="#a5a5a5" stroke="#a5a5a5" stroke-width="1.51"/><path d="M190,297L98,310L201,351Z" fill="#999999" stroke="#999999" stroke-width="1.51"/><path d="M98,310L71,454L201,351Z" fill="#979797" stroke="#979797" stroke-width="1.51"/><path d="M80,-286L-76,-133L111,-76Z" fill="#dddddd" stroke="#dddddd" stroke-width="1.51"/><path d="M61,576L-54,605L122,792Z" fill="#747474" stroke="#747474" stroke-width="1.51"/><path d="M-54,605L-104,725L122,792Z" fill="#727272" stroke="#727272" stroke-width="1.51"/><path d="M111,-76L-81,110L150,121Z" fill="#c8c8c8" stroke="#c8c8c8" stroke-width="1.51"/><path d="M-81,110L98,310L150,121Z" fill="#b8b8b8" stroke="#b8b8b8" stroke-width="1.51"/><path d="M-82,-257L-76,-133L80,-286Z" fill="#e7e7e7" stroke="#e7e7e7" stroke-width="1.51"/><path d="M-81,110L-98,299L98,310Z" fill="#b8b8b8" stroke="#b8b8b8" stroke-width="1.51"/><path d="M-76,-133L-81,110L111,-76Z" fill="#d7d7d7" stroke="#d7d7d7" stroke-width="1.51"/><path d="M-68,417L71,454L98,310Z" fill="#9e9e9e" stroke="#9e9e9e" stroke-width="1.51"/><path d="M-98,299L-68,417L98,310Z" fill="#aaaaaa" stroke="#aaaaaa" stroke-width="1.51"/><path d="M-54,605L61,576L71,454Z" fill="#8b8b8b" stroke="#8b8b8b" stroke-width="1.51"/><path d="M-68,417L-54,605L71,454Z" fill="#969696" stroke="#969696" stroke-width="1.51"/><path d="M-179,527L-200,734L-104,725Z" fill="#848484" stroke="#848484" stroke-width="1.51"/><path d="M-174,228L-98,299L-81,110Z" fill="#c3c3c3" stroke="#c3c3c3" stroke-width="1.51"/><path d="M-82,-257L-182,-231L-76,-133Z" fill="#ededed" stroke="#ededed" stroke-width="1.51"/><path d="M-187,55L-81,110L-76,-133Z" fill="#dcdcdc" stroke="#dcdcdc" stroke-width="1.51"/><path d="M-202,-87L-187,55L-76,-133Z" fill="#e5e5e5" stroke="#e5e5e5" stroke-width="1.51"/><path d="M-68,417L-179,527L-54,605Z" fill="#9a9a9a" stroke="#9a9a9a" stroke-width="1.51"/><path d="M-179,527L-104,725L-54,605Z" fill="#888888" stroke="#888888" stroke-width="1.51"/><path d="M-98,299L-254,413L-68,417Z" fill="#afafaf" stroke="#afafaf" stroke-width="1.51"/><path d="M-254,413L-179,527L-68,417Z" fill="#a7a7a7" stroke="#a7a7a7" stroke-width="1.51"/><path d="M-187,55L-174,228L-81,110Z" fill="#d1d1d1" stroke="#d1d1d1" stroke-width="1.51"/><path d="M-182,-231L-202,-87L-76,-133Z" fill="#ededed" stroke="#ededed" stroke-width="1.51"/><path d="M-174,228L-254,413L-98,299Z" fill="#bababa" stroke="#bababa" stroke-width="1.51"/><path d="M-254,413L-200,734L-179,527Z" fill="#9a9a9a" stroke="#9a9a9a" stroke-width="1.51"/><path d="M-187,55L-254,413L-174,228Z" fill="#c7c7c7" stroke="#c7c7c7" stroke-width="1.51"/><path d="M-202,-87L-254,413L-187,55Z" fill="#d6d6d6" stroke="#d6d6d6" stroke-width="1.51"/></svg>